<svg id="visual" viewBox="0 0 1920 1080" width="1920" height="1080" xmlns="http://www.w3.org/2000/svg" xmlns:xlink="http://www.w3.org/1999/xlink" version="1.1"><g stroke-width="1" stroke-linejoin="bevel"><path d="M847.3 507L832.3 366L667 352Z" fill="#cbf5af" stroke="#cbf5af"></path><path d="M667 352L643 570L847.3 507Z" fill="#bae9a7" stroke="#bae9a7"></path><path d="M832.3 366L647 205L667 352Z" fill="#b8e7a6" stroke="#b8e7a6"></path><path d="M667 352L428.7 531L643 570Z" fill="#b5e5a4" stroke="#b5e5a4"></path><path d="M1057.7 366L881.3 211L832.3 366Z" fill="#c0eda9" stroke="#c0eda9"></path><path d="M832.3 366L881.3 211L647 205Z" fill="#b8e7a6" stroke="#b8e7a6"></path><path d="M428.7 531L614 714L643 570Z" fill="#c5f1ac" stroke="#c5f1ac"></path><path d="M643 570L855.3 735L847.3 507Z" fill="#bdeba8" stroke="#bdeba8"></path><path d="M614 714L855.3 735L643 570Z" fill="#c0eda9" stroke="#c0eda9"></path><path d="M847.3 507L1057.7 366L832.3 366Z" fill="#bdeba8" stroke="#bdeba8"></path><path d="M424.7 330L428.7 531L667 352Z" fill="#c8f3ae" stroke="#c8f3ae"></path><path d="M1090.7 563L1057.7 366L847.3 507Z" fill="#c8f3ae" stroke="#c8f3ae"></path><path d="M647 205L424.7 330L667 352Z" fill="#c0eda9" stroke="#c0eda9"></path><path d="M1077.7 688L1090.7 563L847.3 507Z" fill="#c0eda9" stroke="#c0eda9"></path><path d="M855.3 735L1077.7 688L847.3 507Z" fill="#b0e1a2" stroke="#b0e1a2"></path><path d="M428.7 531L456.7 750L614 714Z" fill="#c0eda9" stroke="#c0eda9"></path><path d="M614 714L629 910L855.3 735Z" fill="#c3efab" stroke="#c3efab"></path><path d="M647 205L412.7 191L424.7 330Z" fill="#b8e7a6" stroke="#b8e7a6"></path><path d="M203.3 338L205.3 554L428.7 531Z" fill="#b8e7a6" stroke="#b8e7a6"></path><path d="M644 0L412.7 191L647 205Z" fill="#b5e5a4" stroke="#b5e5a4"></path><path d="M1057.7 366L1089.7 188L881.3 211Z" fill="#bdeba8" stroke="#bdeba8"></path><path d="M874.3 0L644 0L647 205Z" fill="#c3efab" stroke="#c3efab"></path><path d="M1291 342L1089.7 188L1057.7 366Z" fill="#cbf5af" stroke="#cbf5af"></path><path d="M874.3 0L647 205L881.3 211Z" fill="#c0eda9" stroke="#c0eda9"></path><path d="M1066.7 0L874.3 0L881.3 211Z" fill="#c0eda9" stroke="#c0eda9"></path><path d="M456.7 750L629 910L614 714Z" fill="#b3e3a3" stroke="#b3e3a3"></path><path d="M855.3 735L1042.7 891L1077.7 688Z" fill="#b8e7a6" stroke="#b8e7a6"></path><path d="M629 910L884.3 920L855.3 735Z" fill="#c0eda9" stroke="#c0eda9"></path><path d="M1077.7 688L1254 558L1090.7 563Z" fill="#b3e3a3" stroke="#b3e3a3"></path><path d="M1090.7 563L1254 558L1057.7 366Z" fill="#cbf5af" stroke="#cbf5af"></path><path d="M1308 704L1254 558L1077.7 688Z" fill="#b3e3a3" stroke="#b3e3a3"></path><path d="M884.3 920L1042.7 891L855.3 735Z" fill="#c3efab" stroke="#c3efab"></path><path d="M456.7 750L435.7 899L629 910Z" fill="#b3e3a3" stroke="#b3e3a3"></path><path d="M182.3 741L435.7 899L456.7 750Z" fill="#b0e1a2" stroke="#b0e1a2"></path><path d="M205.3 554L456.7 750L428.7 531Z" fill="#c3efab" stroke="#c3efab"></path><path d="M203.3 338L428.7 531L424.7 330Z" fill="#b8e7a6" stroke="#b8e7a6"></path><path d="M233.3 174L424.7 330L412.7 191Z" fill="#b5e5a4" stroke="#b5e5a4"></path><path d="M233.3 174L203.3 338L424.7 330Z" fill="#b8e7a6" stroke="#b8e7a6"></path><path d="M1265 166L1066.7 0L1089.7 188Z" fill="#b3e3a3" stroke="#b3e3a3"></path><path d="M1089.7 188L1066.7 0L881.3 211Z" fill="#cbf5af" stroke="#cbf5af"></path><path d="M1254 558L1291 342L1057.7 366Z" fill="#c3efab" stroke="#c3efab"></path><path d="M644 0L405.7 0L412.7 191Z" fill="#c5f1ac" stroke="#c5f1ac"></path><path d="M405.7 0L233.3 174L412.7 191Z" fill="#c3efab" stroke="#c3efab"></path><path d="M1291 342L1265 166L1089.7 188Z" fill="#cbf5af" stroke="#cbf5af"></path><path d="M1246 927L1308 704L1077.7 688Z" fill="#cbf5af" stroke="#cbf5af"></path><path d="M1254 558L1470.3 339L1291 342Z" fill="#c5f1ac" stroke="#c5f1ac"></path><path d="M0 692L182.3 741L205.3 554Z" fill="#c8f3ae" stroke="#c8f3ae"></path><path d="M205.3 554L182.3 741L456.7 750Z" fill="#bdeba8" stroke="#bdeba8"></path><path d="M629 910L819.3 1080L884.3 920Z" fill="#b5e5a4" stroke="#b5e5a4"></path><path d="M884.3 920L1073.7 1080L1042.7 891Z" fill="#b0e1a2" stroke="#b0e1a2"></path><path d="M1042.7 891L1246 927L1077.7 688Z" fill="#b0e1a2" stroke="#b0e1a2"></path><path d="M606 1080L819.3 1080L629 910Z" fill="#b5e5a4" stroke="#b5e5a4"></path><path d="M429.7 1080L606 1080L435.7 899Z" fill="#c0eda9" stroke="#c0eda9"></path><path d="M435.7 899L606 1080L629 910Z" fill="#bae9a7" stroke="#bae9a7"></path><path d="M405.7 0L242.3 0L233.3 174Z" fill="#c5f1ac" stroke="#c5f1ac"></path><path d="M0 182L0 375L203.3 338Z" fill="#b8e7a6" stroke="#b8e7a6"></path><path d="M1477.3 0L1270 0L1265 166Z" fill="#c0eda9" stroke="#c0eda9"></path><path d="M1265 166L1270 0L1066.7 0Z" fill="#c8f3ae" stroke="#c8f3ae"></path><path d="M1073.7 1080L1246 927L1042.7 891Z" fill="#bae9a7" stroke="#bae9a7"></path><path d="M209.3 922L429.7 1080L435.7 899Z" fill="#cbf5af" stroke="#cbf5af"></path><path d="M182.3 741L209.3 922L435.7 899Z" fill="#c3efab" stroke="#c3efab"></path><path d="M819.3 1080L1073.7 1080L884.3 920Z" fill="#c5f1ac" stroke="#c5f1ac"></path><path d="M1504.3 574L1470.3 339L1254 558Z" fill="#b5e5a4" stroke="#b5e5a4"></path><path d="M1291 342L1497.3 201L1265 166Z" fill="#cbf5af" stroke="#cbf5af"></path><path d="M1504.3 574L1254 558L1308 704Z" fill="#c3efab" stroke="#c3efab"></path><path d="M0 182L203.3 338L233.3 174Z" fill="#cbf5af" stroke="#cbf5af"></path><path d="M203.3 338L0 375L205.3 554Z" fill="#b3e3a3" stroke="#b3e3a3"></path><path d="M182.3 741L0 935L209.3 922Z" fill="#b3e3a3" stroke="#b3e3a3"></path><path d="M0 375L0 537L205.3 554Z" fill="#c8f3ae" stroke="#c8f3ae"></path><path d="M1501.3 695L1504.3 574L1308 704Z" fill="#c0eda9" stroke="#c0eda9"></path><path d="M0 537L0 692L205.3 554Z" fill="#b3e3a3" stroke="#b3e3a3"></path><path d="M0 0L0 182L233.3 174Z" fill="#c5f1ac" stroke="#c5f1ac"></path><path d="M1470.3 339L1497.3 201L1291 342Z" fill="#b5e5a4" stroke="#b5e5a4"></path><path d="M1677.7 162L1497.3 201L1716.7 342Z" fill="#bdeba8" stroke="#bdeba8"></path><path d="M1493.3 935L1501.3 695L1308 704Z" fill="#b3e3a3" stroke="#b3e3a3"></path><path d="M0 1080L227.3 1080L209.3 922Z" fill="#c0eda9" stroke="#c0eda9"></path><path d="M209.3 922L227.3 1080L429.7 1080Z" fill="#b5e5a4" stroke="#b5e5a4"></path><path d="M1073.7 1080L1263 1080L1246 927Z" fill="#bdeba8" stroke="#bdeba8"></path><path d="M1246 927L1493.3 935L1308 704Z" fill="#bae9a7" stroke="#bae9a7"></path><path d="M1497.3 201L1477.3 0L1265 166Z" fill="#b5e5a4" stroke="#b5e5a4"></path><path d="M242.3 0L0 0L233.3 174Z" fill="#bae9a7" stroke="#bae9a7"></path><path d="M0 692L0 935L182.3 741Z" fill="#c0eda9" stroke="#c0eda9"></path><path d="M1461.3 1080L1493.3 935L1246 927Z" fill="#c3efab" stroke="#c3efab"></path><path d="M1501.3 695L1673.7 566L1504.3 574Z" fill="#b5e5a4" stroke="#b5e5a4"></path><path d="M1504.3 574L1673.7 566L1470.3 339Z" fill="#b5e5a4" stroke="#b5e5a4"></path><path d="M1497.3 201L1677.7 162L1477.3 0Z" fill="#c3efab" stroke="#c3efab"></path><path d="M1715.7 733L1673.7 566L1501.3 695Z" fill="#b5e5a4" stroke="#b5e5a4"></path><path d="M1263 1080L1461.3 1080L1246 927Z" fill="#bdeba8" stroke="#bdeba8"></path><path d="M1493.3 935L1715.7 733L1501.3 695Z" fill="#b8e7a6" stroke="#b8e7a6"></path><path d="M0 935L0 1080L209.3 922Z" fill="#bae9a7" stroke="#bae9a7"></path><path d="M1716.7 342L1497.3 201L1470.3 339Z" fill="#c5f1ac" stroke="#c5f1ac"></path><path d="M1673.7 566L1716.7 342L1470.3 339Z" fill="#b0e1a2" stroke="#b0e1a2"></path><path d="M1726.7 922L1715.7 733L1493.3 935Z" fill="#c8f3ae" stroke="#c8f3ae"></path><path d="M1920 535L1920 365L1716.7 342Z" fill="#c3efab" stroke="#c3efab"></path><path d="M1920 148L1739.7 0L1677.7 162Z" fill="#bae9a7" stroke="#bae9a7"></path><path d="M1677.7 162L1739.7 0L1477.3 0Z" fill="#cbf5af" stroke="#cbf5af"></path><path d="M1920 148L1677.7 162L1716.7 342Z" fill="#bdeba8" stroke="#bdeba8"></path><path d="M1712.7 1080L1726.7 922L1493.3 935Z" fill="#bdeba8" stroke="#bdeba8"></path><path d="M1920 535L1716.7 342L1673.7 566Z" fill="#cbf5af" stroke="#cbf5af"></path><path d="M1461.3 1080L1712.7 1080L1493.3 935Z" fill="#cbf5af" stroke="#cbf5af"></path><path d="M1920 535L1715.7 733L1920 718Z" fill="#c8f3ae" stroke="#c8f3ae"></path><path d="M1920 535L1673.7 566L1715.7 733Z" fill="#c3efab" stroke="#c3efab"></path><path d="M1920 718L1715.7 733L1920 887Z" fill="#c5f1ac" stroke="#c5f1ac"></path><path d="M1920 887L1715.7 733L1726.7 922Z" fill="#c8f3ae" stroke="#c8f3ae"></path><path d="M1920 365L1920 148L1716.7 342Z" fill="#b5e5a4" stroke="#b5e5a4"></path><path d="M1920 1080L1920 887L1726.7 922Z" fill="#c5f1ac" stroke="#c5f1ac"></path><path d="M1920 148L1920 0L1739.7 0Z" fill="#bae9a7" stroke="#bae9a7"></path><path d="M1712.7 1080L1920 1080L1726.7 922Z" fill="#cbf5af" stroke="#cbf5af"></path></g></svg>